<?xml version="1.0" encoding="UTF-8" standalone="no"?>
<svg
   xmlns:dc="http://purl.org/dc/elements/1.1/"
   xmlns:cc="http://creativecommons.org/ns#"
   xmlns:rdf="http://www.w3.org/1999/02/22-rdf-syntax-ns#"
   xmlns:svg="http://www.w3.org/2000/svg"
   xmlns="http://www.w3.org/2000/svg"
   id="svg881"
   version="1.1"
   viewBox="0 0 21.114473 19.84375"
   height="19.84375mm"
   width="21.114473mm">
  <defs
     id="defs875" />
  <metadata
     id="metadata878">
    <rdf:RDF>
      <cc:Work
         rdf:about="">
        <dc:format>image/svg+xml</dc:format>
        <dc:type
           rdf:resource="http://purl.org/dc/dcmitype/StillImage" />
        <dc:title></dc:title>
      </cc:Work>
    </rdf:RDF>
  </metadata>
  <g
     transform="translate(-7.1494341,-5.9443398)"
     id="layer1">
    <path
       id="rect1426"
       transform="scale(0.26458333)"
       d="m 27.021484,22.466797 v 75 h 55 V 85.210938 a 17.046324,27.581532 0 0 0 7.75586,3.021484 17.046324,27.581532 0 0 0 17.046876,-27.582031 17.046324,27.581532 0 0 0 -17.046876,-27.580079 17.046324,27.581532 0 0 0 -7.75586,3.050782 V 22.466797 Z M 87,43.929688 A 10.732871,17.36615 0 0 1 97.732422,61.294922 10.732871,17.36615 0 0 1 87,78.660156 10.732871,17.36615 0 0 1 82.021484,76.666016 V 45.919922 A 10.732871,17.36615 0 0 1 87,43.929688 Z"
       style="fill:#c8beb7;fill-opacity:1;stroke:#000000;stroke-width:0;stroke-linecap:butt;stroke-linejoin:round;stroke-miterlimit:4;stroke-dasharray:none;stroke-opacity:1" />
  </g>
</svg>
